# xmcd
#
# Track frame offsets:
#	150
#	1101
#	17025
#	84625
#	109074
#	137406
#	149350
#	188771
#	225010
#	272139
#	307913
#	313124
#
# Disc length: 4697 seconds
#
# Revision: 0
# Processed by: cddbd v1.5.2PL0 Copyright (c) Steve Scherf et al.
# Submitted via: audiograbber 1.83.01
#
DISCID=8c12570c
DTITLE=Klaus Schulze and Pete Namlook - The Dark Side Of The Moog [Boxset 1 - Vol
DTITLE=1-4 2016] [CD 5) - The Evolution Of The Dark Side Of The Moog [Bonus-C
DTITLE=D]
DYEAR=2016
DGENRE=Electronic
TTITLE0=Intro [voice by Robert A. Moog]
TTITLE1=I - Wish You Were There [excerpt] [1994]
TTITLE2=II - A Saucerful Of Ambience [excerpt] [1995]
TTITLE3=III/3 - Phantom Heart Brother [1995]
TTITLE4=III/4 - Phantom Heart Brother [1995]
TTITLE5=IV/7 - Three Pipes At The Gates Of Dawn [with Bill Laswell 1996]
TTITLE6=IV/8 - Three Pipes At The Gates Of Dawn [with Bill Laswell 1996]
TTITLE7=V/8 - Psychedelic Brunch [with Bill Laswell 1996]
TTITLE8=VI/6 - The Final DAT [with Bill Laswell 1997]
TTITLE9=VII/6 - Obscured By Klaus [with Bill Laswell 1998]
TTITLE10=VIII/2 - Careful With The AKS, Peter [1999]
TTITLE11=VIII/6 - Careful With The AKS, Peter [1999]
EXTD=
EXTT0=
EXTT1=
EXTT2=
EXTT3=
EXTT4=
EXTT5=
EXTT6=
EXTT7=
EXTT8=
EXTT9=
EXTT10=
EXTT11=
PLAYORDER=
